# xmcd
#
# Track frame offsets: 
#        150
#        40866
#        70635
#        96304
#        121856
#        161868
#        258073
#
# Disc length: 4479 seconds
#
# Revision: 2
# Processed by: cddbd v1.5.2PL0 Copyright (c) Steve Scherf et al.
# Submitted via: ExactAudioCopy v0.99pb4
#
DISCID=54117d07
DTITLE=Eric Dolphy - 75th Birthday Celebration [CD2)
DYEAR=2003
DGENRE=Jazz
TTITLE0=Honesty
TTITLE1=Round Midnight
TTITLE2=Rally
TTITLE3=Warm Canto
TTITLE4=Status Seeking
TTITLE5=The Prophet
TTITLE6=Agression
EXTD=YEAR: 2003
EXTT0=
EXTT1=
EXTT2=
EXTT3=
EXTT4=
EXTT5=
EXTT6=
PLAYORDER=
